#!OML:ASF G:\acrobat\cartwheel_test\acrobat_wednesday\Session 1\acrobatwednesday.ASF
:FULLY-SPECIFIED
:DEGREES
1
root -8.06443 16.9522 -2.36678 5.77039 -9.60267 -2.94211
lowerback -2.55829 2.048 -0.423337
upperback 0.705491 2.75731 -0.578553
thorax 2.16488 1.3742 -0.235022
lowerneck -22.9554 8.15394 1.05922
upperneck 26.5775 10.8652 1.40229
head 12.6 5.09816 2.23669
rclavicle 3.54831e-014 3.18055e-015
rhumerus -38.7421 -22.5803 -68.719
rradius 32.9129
rwrist 28.0219
rhand -30.2913 16.5405
rfingers 7.12502
rthumb -3.59872 -13.4088
lclavicle 3.54831e-014 3.18055e-015
lhumerus -25.121 11.029 71.6462
lradius 19.1443
lwrist 15.1749
lhand -16.7624 -20.9106
lfingers 7.12502
lthumb 9.46462 8.8569
rfemur 2.62773 5.42243 21.652
rtibia 26.7734
rfoot -19.3313 4.59896
rtoes -62.6328
lfemur -1.57636 -22.2063 -24.576
ltibia 5.873
lfoot 11.3639 -18.1573
ltoes -20.92
2
root -8.0602 16.95 -2.35517 5.75927 -9.6057 -2.85234
lowerback -2.70422 2.04838 -0.486794
upperback 0.717563 2.7617 -0.593362
thorax 2.25697 1.37531 -0.208523
lowerneck -22.8402 8.16449 0.71797
upperneck 26.4312 10.8865 1.77252
head 12.4684 5.13323 2.41622
rclavicle 5.01931e-015 -3.18055e-015
rhumerus -38.6574 -22.7331 -68.6656
rradius 32.7167
rwrist 28.0487
rhand -29.1392 14.8137
rfingers 7.12502
rthumb -2.48617 -15.1516
lclavicle 5.01931e-015 -3.18055e-015
lhumerus -25.1488 11.538 71.4959
lradius 18.8992
lwrist 14.8434
lhand -23.7078 -14.5133
lfingers 7.12502
lthumb 2.7596 15.4486
rfemur 2.09077 4.51113 21.1173
rtibia 27.6944
rfoot -19.1263 3.83465
rtoes -61.2376
lfemur -1.51985 -22.2789 -24.759
ltibia 5.9117
lfoot 10.8221 -18.6789
ltoes -18.0601
3
root -8.05327 16.9474 -2.34808 5.7857 -9.53467 -2.8126
lowerback -2.77858 2.03 -0.511887
upperback 0.673266 2.73799 -0.575248
thorax 2.25111 1.36302 -0.175193
lowerneck -22.7626 8.273 0.801082
upperneck 26.4956 10.9972 1.8298
head 12.4787 5.19828 2.44217
rclavicle -5.51627e-015 7.15625e-015
rhumerus -38.6864 -22.783 -68.5912
rradius 32.6353
rwrist 28.0754
rhand -27.6971 12.9022
rfingers 7.12502
rthumb -1.09334 -17.0747
lclavicle -5.51627e-015 7.15625e-015
lhumerus -25.2614 12.0432 71.3946
lradius 18.6966
lwrist 14.5612
lhand -25.1947 -15.7904
lfingers 7.12502
lthumb 1.32352 14.1853
rfemur 1.47717 3.64056 20.6521
rtibia 28.6708
rfoot -19.1343 2.49045
rtoes -57.7608
lfemur -1.61133 -22.136 -24.7947
ltibia 6.00808
lfoot 10.3294 -18.8022
ltoes -16.5505
4
root -8.04477 16.9434 -2.34111 5.77404 -9.45653 -2.96433
lowerback -2.81096 2.03526 -0.27151
upperback 0.669255 2.73585 -0.541571
thorax 2.27475 1.36496 -0.273679
lowerneck -22.636 8.54735 1.31135
upperneck 26.6117 11.2633 1.65523
head 12.5455 5.33991 2.34432
rclavicle -1.09332e-014 -2.38542e-014
rhumerus -38.7177 -22.835 -68.5338
rradius 32.6393
rwrist 28.0783
rhand -26.1155 10.968
rfingers 7.12502
rthumb 0.43423 -19.0113
lclavicle -1.09332e-014 -2.38542e-014
lhumerus -25.3352 12.1525 71.4119
lradius 18.5373
lwrist 14.5983
lhand -24.2381 -15.2511
lfingers 7.12502
lthumb 2.24745 14.7168
rfemur 0.857124 1.94445 20.06
rtibia 29.727
rfoot -19.1838 0.613723
rtoes -52.6014
lfemur -1.66911 -21.8627 -24.6023
ltibia 6.11004
lfoot 10.4473 -18.7078
ltoes -17.3394
5
root -8.03986 16.9385 -2.33308 5.77309 -9.44546 -3.10012
lowerback -2.88739 2.04673 -0.0945768
upperback 0.67206 2.74419 -0.501355
thorax 2.32692 1.37119 -0.3277
lowerneck -22.6314 8.53814 1.54705
upperneck 26.5916 11.2659 1.32526
head 12.578 5.3174 2.18662
rclavicle -1.74434e-014 1.07344e-014
rhumerus -38.7398 -22.897 -68.3941
rradius 32.6554
rwrist 28.1268
rhand -24.3518 8.98598
rfingers 7.12502
rthumb 2.13757 -20.9831
lclavicle -1.74434e-014 1.07344e-014
lhumerus -25.465 12.1906 71.4115
lradius 18.4926
lwrist 14.6428
lhand -23.2557 -14.5481
lfingers 7.12502
lthumb 3.1962 15.4077
rfemur 0.431653 1.11021 19.8663
rtibia 30.4634
rfoot -19.1614 0.5484
rtoes -50.6802
lfemur -1.68914 -21.7305 -24.4634
ltibia 6.19235
lfoot 11.1975 -18.3339
ltoes -20.1768
6
root -8.03824 16.9352 -2.32744 5.8764 -9.43201 -2.8902
lowerback -3.14737 2.08319 -0.323566
upperback 0.657265 2.80468 -0.574628
thorax 2.45079 1.39824 -0.26196
lowerneck -22.7925 8.50032 1.90616
upperneck 26.7107 11.1972 0.956248
head 12.7111 5.26369 1.99786
rclavicle 1.98785e-016 1.35174e-014
rhumerus -38.8266 -23.2041 -68.1746
rradius 32.6714
rwrist 28.1753
rhand -20.669 5.32873
rfingers 7.12502
rthumb 5.6939 -24.5748
lclavicle 1.98785e-016 1.35174e-014
lhumerus -25.4819 12.2794 71.3529
lradius 18.463
lwrist 14.6894
lhand -22.9231 -14.6971
lfingers 7.12502
lthumb 3.51732 15.2536
rfemur -0.19674 -0.0185913 19.1827
rtibia 31.2828
rfoot -19.1589 0.45866
rtoes -43.5344
lfemur -2.99149 -4.24758 -21.4481
ltibia 5.06709
lfoot 0.537712 -6.20731
ltoes -41.6202
7
root -8.03529 16.9343 -2.32309 5.88654 -9.37009 -2.79651
lowerback -3.29171 2.1375 -0.382585
upperback 0.681781 2.8824 -0.63941
thorax 2.55783 1.43625 -0.284773
lowerneck -23.0173 8.13178 1.64049
upperneck 26.6573 10.7658 0.93828
head 12.7181 5.04263 1.96576
rclavicle -1.48592e-014 2.54444e-014
rhumerus -38.9177 -23.703 -67.9702
rradius 32.6613
rwrist 28.2415
rhand -21.0317 5.56223
rfingers 7.12502
rthumb 5.34375 -24.3504
lclavicle -1.48592e-014 2.54444e-014
lhumerus -25.4067 12.3708 71.2983
lradius 18.4251
lwrist 14.82
lhand -22.6238 -14.8095
lfingers 7.12502
lthumb 3.80635 15.1362
rfemur -0.709383 -1.31011 18.5654
rtibia 32.1078
rfoot -19.262 -0.152531
rtoes -45.0759
lfemur -2.75049 -5.19072 -21.7463
ltibia 4.663
lfoot 0.894849 -6.66504
ltoes -41.0875
8
root -8.02985 16.9331 -2.3178 5.87225 -9.32244 -2.81907
lowerback -3.37026 2.13632 -0.298488
upperback 0.69421 2.87793 -0.636417
thorax 2.61872 1.4351 -0.325293
lowerneck -23.144 8.03337 1.47132
upperneck 26.7167 10.6716 0.993674
head 12.7522 4.98878 2.00451
rclavicle 4.57205e-015 -3.97569e-015
rhumerus -38.9002 -23.9651 -67.8341
rradius 32.5896
rwrist 28.2873
rhand -20.912 5.68342
rfingers 7.12502
rthumb 5.45934 -24.2263
lclavicle 4.57205e-015 -3.97569e-015
lhumerus -25.4686 12.4584 71.2875
lradius 18.4462
lwrist 14.9138
lhand -22.6655 -14.7419
lfingers 7.12502
lthumb 3.76609 15.2046
rfemur -1.22389 -2.52384 18.057
rtibia 33.0039
rfoot -19.2754 -1.72224
rtoes -43.2772
lfemur -2.62136 -5.59027 -21.8195
ltibia 4.50076
lfoot 1.17286 -6.76763
ltoes -42.2715
9
root -8.02103 16.9288 -2.31179 5.89196 -9.31078 -2.62904
lowerback -3.49971 2.11549 -0.41066
upperback 0.667775 2.85706 -0.685906
thorax 2.6612 1.42315 -0.309984
lowerneck -23.2083 8.06549 1.44009
upperneck 26.8083 10.7138 1.05444
head 12.7953 5.00971 2.04627
rclavicle -3.72721e-015 -1.11319e-014
rhumerus -38.8637 -23.8383 -67.8377
rradius 32.585
rwrist 28.0687
rhand -20.6497 5.541
rfingers 7.12502
rthumb 5.71255 -24.362
lclavicle -3.72721e-015 -1.11319e-014
lhumerus -25.5624 12.4925 71.3201
lradius 18.3941
lwrist 14.9718
lhand -22.7459 -14.7665
lfingers 7.12502
lthumb 3.68848 15.1813
rfemur -1.79962 -3.46244 17.3776
rtibia 33.9222
rfoot -19.0356 -3.74704
rtoes -39.6477
lfemur -2.64764 -5.70907 -22.1311
ltibia 4.48731
lfoot 1.07491 -6.86094
ltoes -42.4424
10
root -8.01196 16.9241 -2.30565 5.88082 -9.30003 -2.52938
lowerback -3.57561 2.13358 -0.429192
upperback 0.649454 2.88333 -0.717741
thorax 2.68584 1.43609 -0.328086
lowerneck -23.1953 8.04015 1.45242
upperneck 26.8341 10.6782 1.04319
head 12.805 4.99335 2.03445
rclavicle -1.6847e-014 3.57812e-015
rhumerus -38.8764 -23.6236 -67.9153
rradius 32.6809
rwrist 27.7484
rhand -20.2398 4.95654
rfingers 7.12502
rthumb 6.10827 -24.9354
lclavicle -1.6847e-014 3.57812e-015
lhumerus -25.5953 12.5781 71.3475
lradius 18.2438
lwrist 14.9229
lhand -22.696 -14.8204
lfingers 7.12502
lthumb 3.73671 15.1266
rfemur -2.38741 -4.56388 16.7663
rtibia 35.0443
rfoot -18.8275 -5.08239
rtoes -39.2808
lfemur -2.59571 -5.8218 -22.3317
ltibia 4.46323
lfoot 1.14789 -6.92195
ltoes -42.1548
11
root -8.00751 16.9234 -2.30009 5.83639 -9.27432 -2.61338
lowerback -3.61101 2.16477 -0.318158
upperback 0.66162 2.9196 -0.689236
thorax 2.72246 1.45559 -0.356879
lowerneck -23.1325 8.0033 1.53501
upperneck 26.7992 10.6453 0.882023
head 12.7957 4.96582 1.95147
rclavicle -2.29099e-014 1.70955e-014
rhumerus -38.9001 -23.5908 -67.9194
rradius 32.7054
rwrist 27.7229
rhand -20.2389 4.61292
rfingers 7.12502
rthumb 6.1092 -25.279
lclavicle -2.29099e-014 1.70955e-014
lhumerus -25.621 12.8141 71.3091
lradius 18.1046
lwrist 14.7264
lhand -22.542 -14.9583
lfingers 7.12502
lthumb 3.8854 14.9861
rfemur -2.81534 -7.20654 15.8162
rtibia 36.4416
rfoot -18.4991 -7.52566
rtoes -39.357
lfemur -2.45548 -5.89247 -22.2681
ltibia 4.38728
lfoot 1.32163 -6.92169
ltoes -41.9885
12
root -8.00566 16.9253 -2.29629 5.76028 -9.23767 -2.66324
lowerback -3.58665 2.16252 -0.310579
upperback 0.666665 2.91487 -0.641989
thorax 2.71183 1.45302 -0.31386
lowerneck -23.0834 8.0216 1.58402
upperneck 26.7613 10.6974 0.741558
head 12.7839 4.97517 1.89682
rclavicle 2.43511e-015 -7.95139e-016
rhumerus -38.9211 -23.486 -67.8876
rradius 32.672
rwrist 27.7699
rhand -20.6746 4.64244
rfingers 7.12502
rthumb 5.68849 -25.2612
lclavicle 2.43511e-015 -7.95139e-016
lhumerus -25.7047 13.2055 71.2187
lradius 17.9869
lwrist 14.4127
lhand -22.3276 -15.0998
lfingers 7.12502
lthumb 4.09242 14.8407
rfemur -2.13717 -5.63183 16.459
rtibia 35.1459
rfoot -18.872 -6.19048
rtoes -38.9483
lfemur -2.31598 -5.88263 -22.2149
ltibia 4.31108
lfoot 1.23212 -6.95911
ltoes -41.369
13
root -8.00196 16.9252 -2.2949 5.73544 -9.20336 -2.66997
lowerback -3.5927 2.15866 -0.339168
upperback 0.653555 2.91017 -0.612436
thorax 2.69873 1.45002 -0.267993
lowerneck -23.0582 8.04851 1.59773
upperneck 26.7584 10.7464 0.695319
head 12.782 4.99199 1.88474
rclavicle 3.24516e-014 -3.57812e-015
rhumerus -38.9463 -23.4222 -67.8372
rradius 32.6437
rwrist 27.734
rhand -20.8426 4.84339
rfingers 7.12502
rthumb 5.52636 -25.0645
lclavicle 3.24516e-014 -3.57812e-015
lhumerus -25.7429 13.4474 71.1815
lradius 17.8376
lwrist 14.1753
lhand -22.1913 -15.2837
lfingers 7.12502
lthumb 4.22408 14.6542
rfemur -1.90065 -5.03676 16.6413
rtibia 34.6634
rfoot -19.0375 -5.73701
rtoes -38.2879
lfemur -2.29437 -5.76653 -22.1978
ltibia 4.31012
lfoot 1.12521 -6.76734
ltoes -41.9464
